<svg width="18" height="25" viewBox="0 0 18 25" fill="none" xmlns="http://www.w3.org/2000/svg">
<path d="M8.36443 24.0265L8.36438 24.0265L8.36764 24.0316C8.47414 24.1982 8.65844 24.3 8.85727 24.3C9.0561 24.3 9.24038 24.1982 9.34688 24.0316L9.34694 24.0316L9.3501 24.0265L15.5236 13.9244L15.2676 13.7679L15.5236 13.9244C16.3142 12.6306 17.0145 10.5124 17.0145 8.85719C17.0145 4.35547 13.359 0.7 8.85735 0.7H8.85719C4.35547 0.7 0.7 4.35552 0.7 8.85719C0.7 10.5124 1.40029 12.6307 2.19093 13.9244C2.19093 13.9244 2.19094 13.9244 2.19094 13.9244L8.36443 24.0265ZM14.5379 13.3222L14.5379 13.3222L8.85694 22.6195L3.17594 13.3222C2.84456 12.7798 2.51395 12.0058 2.26631 11.1879C2.01838 10.3691 1.86073 9.52977 1.86073 8.85734C1.86073 4.9902 4.9896 1.86138 8.85668 1.86138H8.9108C12.7532 1.89014 15.8531 5.00794 15.8531 8.85714C15.8531 9.52958 15.6955 10.3689 15.4476 11.1877C15.2 12.0056 14.8694 12.7797 14.5379 13.3222ZM8.85719 4.90921C6.68005 4.90921 4.90916 6.6801 4.90916 8.85724C4.90916 11.0344 6.68005 12.8053 8.85719 12.8053C11.0343 12.8053 12.8052 11.0344 12.8052 8.85724C12.8052 6.6801 11.0343 4.90921 8.85719 4.90921ZM8.85719 6.07038C10.3995 6.07038 11.644 7.3147 11.644 8.85724C11.644 10.3996 10.3997 11.6439 8.85719 11.6439C7.31481 11.6439 6.07033 10.3996 6.07033 8.85724C6.07033 7.31487 7.31465 6.07038 8.85719 6.07038Z" fill="white" stroke="white" stroke-width="0.6"/>
</svg>
