<svg width="28" height="30" viewBox="0 0 28 30" fill="none" xmlns="http://www.w3.org/2000/svg">
<path d="M19.484 18.8497V18.9997H19.4832H6.1955C7.28616 22.7587 9.87432 25.8221 13.3095 27.1846C17.8028 28.9665 22.8227 27.4785 25.9404 23.4163L21.5681 12.3067M19.484 18.8497C19.6009 18.8511 19.7135 18.8058 19.7968 18.7236C19.8801 18.6414 19.9267 18.5293 19.9267 18.4122C19.9267 18.2952 19.8801 18.1832 19.7968 18.101C19.7135 18.0188 19.6009 17.9732 19.484 17.9746M19.484 18.8497H6.15288H19.484ZM19.484 17.9746V17.8246H19.4832H5.90722C5.74636 17.0205 5.64703 16.1937 5.62709 15.3495C5.61098 14.6677 5.6461 13.9942 5.7239 13.3316H21.5671H21.5681V13.1816C21.6853 13.1832 21.7984 13.1382 21.882 13.056C21.9655 12.9738 22.0124 12.8615 22.0124 12.7443C22.0124 12.6271 21.9655 12.5148 21.882 12.4323C21.7984 12.3501 21.6853 12.3048 21.5681 12.3067M19.484 17.9746H5.78475H19.484ZM21.5681 12.3067V12.1567H21.5669M21.5681 12.3067L21.5657 12.1567C21.5661 12.1567 21.5665 12.1567 21.5669 12.1567M21.5669 12.1567H5.90866C6.72463 8.12136 9.24041 4.6926 12.7549 3.06086C17.1645 1.01352 22.239 2.2065 25.5362 6.06963M21.5669 12.1567L25.5362 6.06963M25.5362 6.06963C25.6364 6.1923 25.7801 6.27028 25.9366 6.27902L25.9369 6.27904C26.0947 6.28747 26.2452 6.22425 26.3544 6.10953L26.3548 6.10916C26.4631 5.9946 26.5216 5.83879 26.5219 5.67874M25.5362 6.06963L1.50202 13.3319C1.34524 13.3338 1.19392 13.273 1.082 13.1629L1.08182 13.1628C0.970122 13.0525 0.906714 12.9018 0.906714 12.7443C0.906714 12.5868 0.970146 12.4362 1.08165 12.3258L1.082 12.3254C1.1938 12.2154 1.34487 12.1546 1.50194 12.1568H4.75336C5.58143 7.6368 8.35822 3.76386 12.2963 1.93534C13.8102 1.23235 15.3982 0.877392 16.9769 0.851548C20.4501 0.794609 23.8721 2.33014 26.3603 5.24574C26.4653 5.36326 26.5225 5.51928 26.5219 5.67874M26.5219 5.67874C26.5219 5.67885 26.5219 5.67896 26.5219 5.67906L26.3719 5.67841L26.5219 5.67874Z" fill="#3C4D69" stroke="#3C4D69" stroke-width="0.3"/>
</svg>
