<svg width="22" height="33" viewBox="0 0 22 33" fill="none" xmlns="http://www.w3.org/2000/svg">
<path d="M5.58034 0.00673538C5.57401 0.00979115 5.59952 0.00512605 5.59346 0.00818217H5.58437C5.56565 0.012627 5.54747 0.0187387 5.52985 0.0267949C5.51085 0.0340175 5.4924 0.0431855 5.47533 0.0542975C5.46569 0.0598536 5.45661 0.0659649 5.44779 0.0726321V0.0817998C5.44174 0.0845778 5.43568 0.0876337 5.42962 0.0909676V0.100135C5.42329 0.105969 5.41723 0.112081 5.41145 0.11847C5.40842 0.121526 5.41447 0.779776 5.41145 0.782832C5.40814 0.788944 5.39603 0.139861 5.39327 0.145973C5.38666 0.154862 5.3806 0.16403 5.3751 0.173752C5.36216 0.199866 5.35279 0.227645 5.34784 0.256262C5.34398 0.268486 5.34095 0.280709 5.33847 0.29321L0.011361 18.2083C-0.0142475 18.3011 0.00392654 18.4006 0.060926 18.4781C0.117926 18.5553 0.207417 18.6017 0.302694 18.6034H8.81748L5.34791 32.6049C5.30798 32.7497 5.37682 32.9025 5.51092 32.968C5.64502 33.0333 5.80638 32.9928 5.89422 32.8714L21.9397 11.2908C22.0086 11.1969 22.0193 11.0716 21.9675 10.9669C21.9155 10.8622 21.8097 10.7958 21.6938 10.795H13.2791L18.406 0.459489C18.4545 0.36198 18.4487 0.246138 18.3909 0.153906C18.3331 0.0619511 18.2317 0.00694893 18.1238 0.00916779H5.70233C5.67259 0.00166706 6.29688 0.623305 5.61146 0L5.58034 0.00673538ZM5.88507 0.623793H17.6319L12.505 10.9685C12.4576 11.0646 12.4623 11.1785 12.518 11.2699C12.5736 11.3616 12.6719 11.4177 12.7782 11.4185H21.0744L6.32177 31.2538L9.51818 18.3738C9.54103 18.2807 9.5201 18.1824 9.46118 18.1068C9.40253 18.0316 9.31276 17.9877 9.21776 17.9879H0.721305L5.88507 0.623793Z" fill="#EA142E"/>
</svg>
