<svg width="24" height="35" viewBox="0 0 24 35" fill="none" xmlns="http://www.w3.org/2000/svg">
<path d="M6.51482 0.816286L6.53803 0.811262L6.56915 0.804526L6.66981 0.782738L6.69883 0.809123C6.70169 0.80908 6.70444 0.809099 6.70708 0.809168H19.122C19.3 0.806319 19.4658 0.897294 19.5602 1.04744L19.5604 1.04767C19.6551 1.19881 19.6646 1.3886 19.5851 1.5485M6.51482 0.816286L19.1238 1.00917C19.2317 1.00695 19.3331 1.06195 19.3909 1.15391C19.4487 1.24614 19.4545 1.36198 19.406 1.45949L14.3783 11.595H14.6016M6.51482 0.816286L6.49481 0.825941M6.51482 0.816286L6.49481 0.825941M19.5851 1.5485L19.4061 1.4595L19.5852 1.54837L19.5851 1.5485ZM19.5851 1.5485L14.6016 11.595M14.6016 11.595H22.6938H22.6953C22.8874 11.5963 23.0614 11.7063 23.1466 11.8779L23.1468 11.8783C23.2315 12.0496 23.2142 12.2547 23.101 12.4091L23.1002 12.4102L7.05626 33.9886C7.056 33.989 7.05574 33.9893 7.05548 33.9897C6.91074 34.1886 6.64478 34.2556 6.42338 34.1479L6.42308 34.1477C6.20308 34.0401 6.09059 33.7909 6.15434 33.5546L9.56187 19.8034H1.30269H1.2992L1.2992 19.8034C1.14109 19.8006 0.993641 19.7237 0.90001 19.5969L0.899802 19.5966C0.80634 19.4695 0.776734 19.3067 0.818569 19.1551L0.819619 19.1513L0.819657 19.1513L6.14438 1.24425C6.14687 1.23271 6.1498 1.22089 6.15327 1.20881C6.16215 1.16488 6.17689 1.12329 6.1959 1.08494L6.20081 1.07503L6.20107 1.07518C6.21011 1.05923 6.21971 1.04456 6.22962 1.03093V0.972753L6.29827 0.934969L6.32712 0.913142C6.34053 0.902991 6.355 0.893107 6.37075 0.883773C6.39742 0.866846 6.4251 0.853103 6.45273 0.842194C6.46669 0.836041 6.48073 0.830645 6.49481 0.825941M14.6016 11.595L14.5024 11.795H22.6938C22.8097 11.7958 22.9155 11.8622 22.9675 11.9669C23.0193 12.0716 23.0086 12.1969 22.9397 12.2908L6.89422 33.8714C6.80638 33.9928 6.64502 34.0333 6.51092 33.968C6.37682 33.9025 6.30798 33.7497 6.34791 33.6049L9.76792 19.8034L6.49481 0.825941M1.98944 18.7879L10.2172 18.7879L10.2178 18.7879M1.98944 18.7879L10.4612 19.1068C10.4025 19.0316 10.3128 18.9877 10.2178 18.9879V18.7879M1.98944 18.7879L7.03425 1.82379H18.3096L13.3258 11.8797L13.3256 11.8801C13.2483 12.037 13.2556 12.2235 13.3471 12.3739L1.98944 18.7879ZM10.2178 18.7879C10.3748 18.7877 10.5227 18.8603 10.6189 18.9839L10.2178 18.7879ZM1.30269 19.6034H9.61143L1.06093 19.4781C1.11793 19.5553 1.20742 19.6017 1.30269 19.6034Z" fill="#EA142E" stroke="#EA142E" stroke-width="0.4"/>
</svg>
