<svg width="18" height="18" viewBox="0 0 18 18" fill="none" xmlns="http://www.w3.org/2000/svg">
<circle cx="9" cy="9" r="7.75" stroke="#707C88" stroke-width="1.5"/>
<path fill-rule="evenodd" clip-rule="evenodd" d="M10.0457 12.0208C10.0457 12.5984 9.57749 13.0666 8.99988 13.0666C8.42228 13.0666 7.9541 12.5984 7.9541 12.0208C7.9541 11.4432 8.42228 10.975 8.99988 10.975C9.57749 10.975 10.0457 11.4432 10.0457 12.0208Z" fill="#707C88"/>
<path d="M6.11771 6.89377L6.21976 6.56217C6.55135 5.2868 7.6737 4.47058 8.97447 4.47058C10.5304 4.47058 11.8824 5.69493 11.8824 7.27641C11.8824 8.55178 11.0151 9.62312 9.81627 9.95468V10.5159H8.15831V9.52104C8.15831 8.95986 8.56641 8.47526 9.12759 8.42424C9.7398 8.34773 10.2499 7.8886 10.2499 7.27641C10.2499 6.5877 9.63773 6.12858 8.97457 6.12858C8.41338 6.12858 7.95427 6.43468 7.80124 6.99586L7.69919 7.32745L6.11768 6.89381L6.11771 6.89377Z" fill="#707C88"/>
</svg>
