<svg width="54" height="35" viewBox="0 0 54 35" fill="none" xmlns="http://www.w3.org/2000/svg">
<path d="M1 0.314844L0.85 0.314843V0.464844V31.4754V31.6254H1H1.74289V34.155V34.305H1.89289H5.43778H5.58778V34.155V31.6254H48.4118V34.155V34.305H48.5618H52.1063H52.2563V34.155V31.6255L52.9999 31.6258L53.15 31.6259V31.4758V0.465274V0.315275L53 0.315274L1 0.314844ZM4.64596 33.3625H2.68512V31.6247H4.64633L4.64596 33.3625ZM51.3136 33.3625H49.3533V31.6247H51.3136V33.3625ZM52.2074 30.6829H1.79085V1.25667H52.2063L52.2074 30.6829Z" fill="#EA142E" stroke="#EA142E" stroke-width="0.3"/>
<path d="M20.922 15.1057C21.8833 15.6377 22.364 16.431 22.364 17.4857C22.364 18.3723 22.0513 19.077 21.426 19.5997C20.81 20.1223 19.9793 20.3837 18.934 20.3837C17.8887 20.3837 17.0533 20.127 16.428 19.6137C15.8027 19.1003 15.49 18.391 15.49 17.4857C15.49 16.9817 15.616 16.5243 15.868 16.1137C16.12 15.6937 16.4747 15.3577 16.932 15.1057C16.1947 14.6203 15.826 13.9297 15.826 13.0337C15.826 12.1377 16.1247 11.447 16.722 10.9617C17.3287 10.467 18.066 10.2197 18.934 10.2197C19.7927 10.2197 20.5253 10.467 21.132 10.9617C21.7387 11.4563 22.042 12.147 22.042 13.0337C22.042 13.9203 21.6687 14.611 20.922 15.1057ZM18.934 11.7457C18.486 11.7457 18.122 11.867 17.842 12.1097C17.5713 12.343 17.436 12.6743 17.436 13.1037C17.436 13.5143 17.576 13.8457 17.856 14.0977C18.136 14.3403 18.4953 14.4617 18.934 14.4617C19.3633 14.4617 19.718 14.3403 19.998 14.0977C20.2873 13.8457 20.432 13.5143 20.432 13.1037C20.432 12.6743 20.292 12.343 20.012 12.1097C19.732 11.867 19.3727 11.7457 18.934 11.7457ZM18.934 18.8577C19.4847 18.8577 19.9233 18.7223 20.25 18.4517C20.586 18.181 20.754 17.8077 20.754 17.3317C20.754 16.8557 20.586 16.4823 20.25 16.2117C19.9233 15.941 19.4847 15.8057 18.934 15.8057C18.374 15.8057 17.926 15.941 17.59 16.2117C17.2633 16.4823 17.1 16.8557 17.1 17.3317C17.1 17.8077 17.2633 18.181 17.59 18.4517C17.926 18.7223 18.374 18.8577 18.934 18.8577ZM25.3289 14.0977H26.5609C27.4943 14.0977 28.2829 14.3777 28.9269 14.9377C29.5709 15.4883 29.8929 16.2537 29.8929 17.2337C29.8929 18.2137 29.5616 18.9837 28.8989 19.5437C28.2456 20.1037 27.4336 20.3837 26.4629 20.3837C25.6696 20.3837 24.9789 20.2017 24.3909 19.8377C23.8029 19.4737 23.3829 18.9557 23.1309 18.2837L24.5169 17.4857C24.7876 18.3723 25.4363 18.8157 26.4629 18.8157C27.0136 18.8157 27.4523 18.6757 27.7789 18.3957C28.1149 18.1063 28.2829 17.719 28.2829 17.2337C28.2829 16.7577 28.1196 16.3797 27.7929 16.0997C27.4663 15.8103 27.0323 15.6657 26.4909 15.6657H23.6349L24.0129 10.4017H29.4729V11.9137H25.4969L25.3289 14.0977ZM34.6864 10.8637C35.1251 11.3023 35.3444 11.8343 35.3444 12.4597C35.3444 13.085 35.1251 13.617 34.6864 14.0557C34.2571 14.485 33.7157 14.6997 33.0624 14.6997C32.3997 14.6997 31.8537 14.485 31.4244 14.0557C30.9857 13.617 30.7664 13.085 30.7664 12.4597C30.7664 11.8437 30.9857 11.3163 31.4244 10.8777C31.8631 10.439 32.4091 10.2197 33.0624 10.2197C33.7157 10.2197 34.2571 10.4343 34.6864 10.8637ZM33.0484 13.4677C33.3471 13.4677 33.5897 13.3743 33.7764 13.1877C33.9631 12.9917 34.0564 12.749 34.0564 12.4597C34.0564 12.1703 33.9631 11.9277 33.7764 11.7317C33.5897 11.5357 33.3471 11.4377 33.0484 11.4377C32.7591 11.4377 32.5211 11.5357 32.3344 11.7317C32.1477 11.9277 32.0544 12.1703 32.0544 12.4597C32.0544 12.7397 32.1477 12.9777 32.3344 13.1737C32.5304 13.3697 32.7684 13.4677 33.0484 13.4677ZM32.3484 19.2077L31.5924 18.7597L38.0464 11.5777L38.8024 12.0117L32.3484 19.2077ZM37.5424 20.3697C36.8797 20.3697 36.3337 20.155 35.9044 19.7257C35.4657 19.287 35.2464 18.755 35.2464 18.1297C35.2464 17.5137 35.4657 16.9863 35.9044 16.5477C36.3431 16.109 36.8891 15.8897 37.5424 15.8897C38.1864 15.8897 38.7277 16.109 39.1664 16.5477C39.6051 16.9863 39.8244 17.5137 39.8244 18.1297C39.8244 18.755 39.6051 19.287 39.1664 19.7257C38.7371 20.155 38.1957 20.3697 37.5424 20.3697ZM37.5284 19.1377C37.8271 19.1377 38.0697 19.0443 38.2564 18.8577C38.4431 18.6617 38.5364 18.419 38.5364 18.1297C38.5364 17.8403 38.4431 17.5977 38.2564 17.4017C38.0697 17.2057 37.8271 17.1077 37.5284 17.1077C37.2391 17.1077 37.0011 17.2057 36.8144 17.4017C36.6277 17.5977 36.5344 17.8403 36.5344 18.1297C36.5344 18.4097 36.6277 18.6477 36.8144 18.8437C37.0104 19.0397 37.2484 19.1377 37.5284 19.1377Z" fill="#EA142E"/>
</svg>
