<svg width="110" height="109" viewBox="0 0 110 109" fill="none" xmlns="http://www.w3.org/2000/svg">
<rect width="109.415" height="109" fill="#EA142E"/>
<rect width="109.415" height="109" fill="url(#paint0_linear_766_1490)"/>
<path d="M88.577 20.0063H71.1565C70.9163 19.9769 70.6743 20.051 70.4931 20.2117C70.3119 20.3715 70.2074 20.6028 70.2074 20.8447C70.2074 21.0867 70.3119 21.317 70.4931 21.4777C70.6744 21.6376 70.9163 21.7126 71.1565 21.6831H86.452L70.2093 38.0794L63.1307 31.1418C62.8021 30.8382 62.295 30.8382 61.9664 31.1418L45.3262 46.5015L37.4799 38.6551C37.1754 38.3498 36.6897 38.3221 36.3531 38.5918L20.3147 51.4811C20.1406 51.6195 20.029 51.8221 20.0049 52.0436C19.9808 52.2641 20.046 52.4864 20.1871 52.6587C20.3415 52.8632 20.5835 52.982 20.8397 52.9784C21.0299 52.9775 21.2138 52.915 21.3647 52.7998L36.8781 40.3704L44.7754 48.2551C45.1022 48.5659 45.6138 48.5659 45.9406 48.2551L62.5807 32.8954L69.6842 39.8453V39.8462C70.0137 40.173 70.545 40.173 70.8744 39.8462L87.7324 22.7839V38.1436C87.7029 38.3838 87.7771 38.6258 87.9378 38.807C88.0985 38.9882 88.3288 39.0918 88.5708 39.0918C88.8128 39.0918 89.0431 38.9882 89.2038 38.807C89.3636 38.6257 89.4386 38.3838 89.4092 38.1436V20.8509C89.4127 20.6277 89.3261 20.4134 89.1699 20.2544C89.0136 20.0955 88.8002 20.0062 88.577 20.0062L88.577 20.0063Z" fill="white"/>
<path d="M88.577 20.0063H71.1565C70.9163 19.9769 70.6743 20.051 70.4931 20.2117C70.3119 20.3715 70.2074 20.6028 70.2074 20.8447C70.2074 21.0867 70.3119 21.317 70.4931 21.4777C70.6744 21.6376 70.9163 21.7126 71.1565 21.6831H86.452L70.2093 38.0794L63.1307 31.1418C62.8021 30.8382 62.295 30.8382 61.9664 31.1418L45.3262 46.5015L37.4799 38.6551C37.1754 38.3498 36.6897 38.3221 36.3531 38.5918L20.3147 51.4811C20.1406 51.6195 20.029 51.8221 20.0049 52.0436C19.9808 52.2641 20.046 52.4864 20.1871 52.6587C20.3415 52.8632 20.5835 52.982 20.8397 52.9784C21.0299 52.9775 21.2138 52.915 21.3647 52.7998L36.8781 40.3704L44.7754 48.2551C45.1022 48.5659 45.6138 48.5659 45.9406 48.2551L62.5807 32.8954L69.6842 39.8453V39.8462C70.0137 40.173 70.545 40.173 70.8744 39.8462L87.7324 22.7839V38.1436C87.7029 38.3838 87.7771 38.6258 87.9378 38.807C88.0985 38.9882 88.3288 39.0918 88.5708 39.0918C88.8128 39.0918 89.0431 38.9882 89.2038 38.807C89.3636 38.6257 89.4386 38.3838 89.4092 38.1436V20.8509C89.4127 20.6277 89.3261 20.4134 89.1699 20.2544C89.0136 20.0955 88.8002 20.0062 88.577 20.0062L88.577 20.0063Z" stroke="white"/>
<path d="M88.474 47.2061C88.0079 47.2061 87.6293 47.5837 87.6293 48.0507V88.0505C87.5999 88.2907 87.6749 88.5327 87.8347 88.7139C87.9954 88.8952 88.2258 88.9987 88.4677 88.9987C88.7097 88.9987 88.9409 88.8952 89.1007 88.7139C89.2615 88.5327 89.3364 88.2907 89.3061 88.0505V48.0507C89.3061 47.5891 88.9356 47.2132 88.474 47.2061Z" fill="white"/>
<path d="M88.474 47.2061C88.0079 47.2061 87.6293 47.5837 87.6293 48.0507V88.0505C87.5999 88.2907 87.6749 88.5327 87.8347 88.7139C87.9954 88.8952 88.2258 88.9987 88.4677 88.9987C88.7097 88.9987 88.9409 88.8952 89.1007 88.7139C89.2615 88.5327 89.3364 88.2907 89.3061 88.0505V48.0507C89.3061 47.5891 88.9356 47.2132 88.474 47.2061Z" stroke="white"/>
<path d="M75.7886 55.0138C75.5662 55.0138 75.3529 55.1031 75.1957 55.262C75.0395 55.4209 74.9537 55.6352 74.9573 55.8584V88.0503C74.9269 88.2905 75.0019 88.5324 75.1627 88.7137C75.3225 88.8949 75.5528 88.9985 75.7957 88.9985C76.0377 88.9985 76.268 88.8949 76.4287 88.7137C76.5885 88.5324 76.6635 88.2904 76.6341 88.0503V55.8584C76.6367 55.6334 76.5492 55.4165 76.3903 55.2575C76.2305 55.0977 76.0144 55.0102 75.7885 55.0138H75.7886Z" fill="white"/>
<path d="M75.7886 55.0138C75.5662 55.0138 75.3529 55.1031 75.1957 55.262C75.0395 55.4209 74.9537 55.6352 74.9573 55.8584V88.0503C74.9269 88.2905 75.0019 88.5324 75.1627 88.7137C75.3225 88.8949 75.5528 88.9985 75.7957 88.9985C76.0377 88.9985 76.268 88.8949 76.4287 88.7137C76.5885 88.5324 76.6635 88.2904 76.6341 88.0503V55.8584C76.6367 55.6334 76.5492 55.4165 76.3903 55.2575C76.2305 55.0977 76.0144 55.0102 75.7885 55.0138H75.7886Z" stroke="white"/>
<path d="M63.0412 67.252C62.5742 67.252 62.1966 67.6305 62.1966 68.0966V88.0519C62.1662 88.2921 62.2412 88.5341 62.4019 88.7153C62.5617 88.8966 62.7921 89.0001 63.0349 89.0001C63.2769 89.0001 63.5073 88.8966 63.668 88.7153C63.8278 88.5341 63.9028 88.2921 63.8733 88.0519V68.0582C63.8528 67.6118 63.4876 67.2582 63.0412 67.252Z" fill="white"/>
<path d="M63.0412 67.252C62.5742 67.252 62.1966 67.6305 62.1966 68.0966V88.0519C62.1662 88.2921 62.2412 88.5341 62.4019 88.7153C62.5617 88.8966 62.7921 89.0001 63.0349 89.0001C63.2769 89.0001 63.5073 88.8966 63.668 88.7153C63.8278 88.5341 63.9028 88.2921 63.8733 88.0519V68.0582C63.8528 67.6118 63.4876 67.2582 63.0412 67.252Z" stroke="white"/>
<path d="M49.9074 60.9551C49.444 60.9613 49.0699 61.3363 49.0627 61.7997V88.0533C49.0627 88.5203 49.4404 88.898 49.9074 88.898C50.3744 88.898 50.752 88.5203 50.752 88.0533V61.7997C50.7449 61.3363 50.3708 60.9613 49.9074 60.9551Z" fill="white"/>
<path d="M49.9074 60.9551C49.444 60.9613 49.0699 61.3363 49.0627 61.7997V88.0533C49.0627 88.5203 49.4404 88.898 49.9074 88.898C50.3744 88.898 50.752 88.5203 50.752 88.0533V61.7997C50.7449 61.3363 50.3708 60.9613 49.9074 60.9551Z" stroke="white"/>
<path d="M37.0297 69.2608C36.8065 69.2573 36.5922 69.343 36.4333 69.5001C36.2744 69.6564 36.1851 69.8698 36.1851 70.093V88.0125C36.1547 88.2527 36.2297 88.4946 36.3904 88.6759C36.5503 88.8571 36.7815 88.9607 37.0235 88.9607C37.2654 88.9607 37.4958 88.8571 37.6565 88.6759C37.8163 88.4946 37.8913 88.2526 37.8619 88.0125V70.093C37.8619 69.8716 37.7744 69.66 37.6181 69.5046C37.4619 69.3484 37.2502 69.2609 37.0297 69.2609L37.0297 69.2608Z" fill="white"/>
<path d="M37.0297 69.2608C36.8065 69.2573 36.5922 69.343 36.4333 69.5001C36.2744 69.6564 36.1851 69.8698 36.1851 70.093V88.0125C36.1547 88.2527 36.2297 88.4946 36.3904 88.6759C36.5503 88.8571 36.7815 88.9607 37.0235 88.9607C37.2654 88.9607 37.4958 88.8571 37.6565 88.6759C37.8163 88.4946 37.8913 88.2526 37.8619 88.0125V70.093C37.8619 69.8716 37.7744 69.66 37.6181 69.5046C37.4619 69.3484 37.2502 69.2609 37.0297 69.2609L37.0297 69.2608Z" stroke="white"/>
<path d="M24.2687 76.212C23.8071 76.212 23.4312 76.5825 23.4241 77.0441V88.0646C23.4241 88.5316 23.8017 88.9102 24.2687 88.9102C24.7357 88.9102 25.1133 88.5316 25.1133 88.0646V77.0315C25.1 76.5744 24.7258 76.2119 24.2687 76.2119V76.212Z" fill="white"/>
<path d="M24.2687 76.212C23.8071 76.212 23.4312 76.5825 23.4241 77.0441V88.0646C23.4241 88.5316 23.8017 88.9102 24.2687 88.9102C24.7357 88.9102 25.1133 88.5316 25.1133 88.0646V77.0315C25.1 76.5744 24.7258 76.2119 24.2687 76.2119V76.212Z" stroke="white"/>
<defs>
<linearGradient id="paint0_linear_766_1490" x1="-18.899" y1="87.2001" x2="170.898" y2="71.0294" gradientUnits="userSpaceOnUse">
<stop offset="0.426427" stop-color="#212C3F"/>
<stop offset="1" stop-color="#EA142E"/>
</linearGradient>
</defs>
</svg>
