<svg width="110" height="110" viewBox="0 0 110 110" fill="none" xmlns="http://www.w3.org/2000/svg">
<rect width="110" height="110" fill="#EA142E"/>
<rect width="110" height="110" fill="url(#paint0_linear_794_307)"/>
<path d="M94 34.3798V41.9661V59.0483V77.1092V87.6337V88.0929L95 87.0929H89.5932H75.9321H57.8555H39.2025H23.8135H15.5272H15C15.3333 87.4262 15.6667 87.7595 16 88.0929V80.5066V63.4244V45.3635V34.839V34.3798L15 35.3798H20.4068H34.0679H52.1445H70.7975H86.1865H94.4728H95C96.2898 35.3798 96.2898 33.3799 95 33.3799H89.5932H75.9321H57.8555H39.2025H23.8135H15.5272H15C14.4551 33.3799 14 33.835 14 34.3799V41.9661V59.0483V77.1093V87.6338V88.0929C14 88.6378 14.4551 89.0929 15 89.0929H20.4068H34.0679H52.1445H70.7975H86.1865H94.4728H95C95.5449 89.0929 96 88.6378 96 88.0929V80.5067V63.4245V45.3635V34.8391V34.3799C96 33.0908 94.0001 33.0908 94.0001 34.3799L94 34.3798Z" fill="white"/>
<path d="M42.762 29.0476V22L41.762 23H54.1912H68.1095H68.238C67.9047 22.6667 67.5714 22.3333 67.238 22V29.0476C67.238 30.3374 69.238 30.3374 69.238 29.0476V22C69.238 21.4551 68.7829 21 68.238 21H55.8088H41.8905H41.762C41.2171 21 40.762 21.4551 40.762 22V29.0476C40.762 30.3374 42.7619 30.3374 42.7619 29.0476H42.762Z" fill="white"/>
<path d="M94 34.3798V48.1757V48.6655L95 47.6655H89.5932H75.9321H57.8555H39.2025H23.8135H15.5272H15C15.3333 47.9988 15.6667 48.3321 16 48.6655V34.8696V34.3798L15 35.3798H20.4068H34.0679H52.1445H70.7975H86.1865H94.4728H95C96.2898 35.3798 96.2898 33.3799 95 33.3799H89.5932H75.9321H57.8555H39.2025H23.8135H15.5272H15C14.4551 33.3799 14 33.835 14 34.3799V48.1757V48.6655C14 49.2104 14.4551 49.6655 15 49.6655H20.4068H34.0679H52.1445H70.7975H86.1865H94.4728H95C95.5449 49.6655 96 49.2104 96 48.6655V34.8697V34.3799C96 33.0908 94.0001 33.0908 94.0001 34.3799L94 34.3798Z" fill="white"/>
<path d="M62.0004 48.665V58.5697L63.0004 57.5697H48.763H47.0005C47.3338 57.903 47.6671 58.2363 48.0005 58.5697V48.665L47.0005 49.665H61.2378H63.0004C64.2902 49.665 64.2902 47.665 63.0004 47.665H48.763H47.0005C46.4556 47.665 46.0005 48.1201 46.0005 48.665V58.5697C46.0005 59.1146 46.4556 59.5697 47.0005 59.5697H61.2378H63.0004C63.5453 59.5697 64.0004 59.1146 64.0004 58.5697V48.665C64.0004 47.3759 62.0004 47.3759 62.0004 48.665L62.0004 48.665Z" fill="white"/>
<defs>
<linearGradient id="paint0_linear_794_307" x1="-19" y1="88" x2="171.821" y2="71.8038" gradientUnits="userSpaceOnUse">
<stop offset="0.426427" stop-color="#212C3F"/>
<stop offset="1" stop-color="#EA142E"/>
</linearGradient>
</defs>
</svg>
