<svg width="110" height="110" viewBox="0 0 110 110" fill="none" xmlns="http://www.w3.org/2000/svg">
<rect width="110" height="110" fill="#EA142E"/>
<rect width="110" height="110" fill="url(#paint0_linear_794_308)"/>
<path d="M67.2149 88.1492H66.9801H62.0859C61.6868 88.1492 61.3387 87.8774 61.2438 87.4894L59.8858 81.9532C56.7447 82.2706 54.1288 82.3047 51.1285 82.0956L49.6994 87.5048L49.6993 87.5051C49.5982 87.8851 49.2549 88.15 48.861 88.15H43.9668C43.5677 88.15 43.2196 87.8782 43.1247 87.4902L41.3916 80.4267C35.4268 78.6882 30.3857 75.6998 26.7533 71.7418L22.0667 73.5839C21.3351 73.8737 20.5323 73.8578 19.8101 73.5431C19.0876 73.2283 18.5315 72.65 18.2428 71.9168L18.2428 71.9167L14.0546 61.2608C13.4593 59.7483 14.2072 58.0317 15.7203 57.4363L15.7205 57.4363L20.4158 55.5929C20.447 47.4226 24.6452 40.0252 31.9544 35.2134C32.1401 32.3741 33.982 29.3 36.4737 26.9343C38.9878 24.5474 42.1966 22.85 45.1039 22.85C45.3975 22.85 45.6719 22.9989 45.8319 23.2447L45.8323 23.2455C45.9907 23.492 46.0165 23.8026 45.8953 24.0716L67.2149 88.1492ZM67.2149 88.1492L67.2015 88.1203M67.2149 88.1492L67.2015 88.1203M67.2015 88.1203C67.4974 88.0426 67.7365 87.8125 67.8202 87.509L67.8206 87.5074L69.834 79.8867C81.627 75.8597 88.9837 66.7285 89.0829 55.9069C92.079 55.0501 94.2808 53.1856 96.1542 49.974L96.1544 49.9737C96.3531 49.6313 96.2953 49.1976 96.0116 48.9193C95.7273 48.6404 95.2934 48.5907 94.9538 48.7965M67.2015 88.1203L45.8952 24.0717C44.7452 26.6368 43.9178 28.5745 43.5528 30.3968C47.1027 29.5648 50.8624 29.1445 54.7504 29.1445C72.7242 29.1445 85.931 37.6658 88.5852 50.9874C91.884 50.6231 94.8761 48.8428 94.9538 48.7965M94.9538 48.7965C94.9539 48.7965 94.9539 48.7965 94.954 48.7964L94.9551 48.7958L95.0316 48.9248L94.9538 48.7965ZM68.8436 78.3859L68.844 78.3858C80.4473 74.5892 87.3483 66.0973 87.3483 55.6832C87.3483 55.6455 87.3457 55.6112 87.3426 55.5717C87.3412 55.553 87.3396 55.533 87.3382 55.5109C87.3315 55.4287 87.3253 55.3437 87.3237 55.2554M68.8436 78.3859L87.4737 55.2528M68.8436 78.3859C68.5648 78.478 68.3507 78.7045 68.2756 78.9884L66.3131 86.4161H62.7661L61.3922 80.8063L61.3921 80.8062C61.2881 80.3828 60.8836 80.1042 60.4545 80.1511L60.4542 80.1512C58.3949 80.3815 56.5303 80.494 54.7524 80.494C53.405 80.494 52.0291 80.4351 50.5473 80.3144L50.5473 80.3143L50.5429 80.3141C50.1341 80.2928 49.7477 80.5465 49.6392 80.9568L48.1959 86.4179H44.6489L42.9576 79.524L42.9576 79.5239C42.8826 79.2193 42.6494 78.9799 42.3478 78.8959L42.3477 78.8959C36.2564 77.2047 31.1772 74.1758 27.6519 70.1441L27.6517 70.1438C27.4092 69.8679 27.0218 69.7774 26.6827 69.9078L26.6817 69.9082L21.4326 71.9705L21.4318 71.9708C21.1308 72.0911 20.8005 72.0852 20.5031 71.9548L20.5027 71.9546M68.8436 78.3859L20.5027 71.9546M87.3237 55.2554L87.4737 55.2528M87.3237 55.2554C87.3237 55.2556 87.3237 55.2558 87.3237 55.256L87.4737 55.2528M87.3237 55.2554C87.3149 54.8434 87.5971 54.484 87.9986 54.3929L88.0318 54.5392C87.6993 54.6146 87.4662 54.912 87.4737 55.2528M20.5027 71.9546C20.2046 71.8248 19.9761 71.5878 19.8569 71.2856L20.5027 71.9546ZM96.0246 49.8984C94.1439 53.1225 91.9403 54.9631 88.9337 55.7931L96.0246 49.8984ZM87.9065 52.7762C89.6652 52.7051 91.3591 52.2461 92.7255 51.7415L22.1575 55.842C22.153 55.7861 22.1491 55.7369 22.1491 55.6865C22.1491 47.8275 26.1004 40.9847 33.2905 36.4149C33.5839 36.2286 33.7235 35.8889 33.6735 35.5569C33.7235 33.3355 35.0963 30.8222 37.0731 28.7535C38.9756 26.7625 41.4122 25.2102 43.7028 24.7361C42.573 27.3248 41.8234 29.3536 41.6483 31.4801C41.6248 31.7614 41.7405 32.0361 41.9565 32.216C42.1735 32.3976 42.4634 32.4606 42.7348 32.3894L42.7353 32.3893C46.5027 31.3864 50.544 30.8782 54.7484 30.8782C72.2543 30.8782 84.885 39.2152 87.0157 52.0524L87.0157 52.0526C87.0878 52.4824 87.4436 52.7879 87.9042 52.7763L87.9065 52.7762ZM22.1774 56.1557C22.1751 56.0623 22.1681 55.9699 22.1606 55.8814L21.6273 56.9813C21.9659 56.8485 22.1856 56.5187 22.1775 56.1561L22.1774 56.1557ZM16.3551 59.0533L21.6272 56.9813L19.8569 71.2854L15.6687 60.6297L15.6687 60.6296C15.4233 60.0058 15.7314 59.2979 16.355 59.0533L16.3551 59.0533Z" fill="white" stroke="white" stroke-width="0.3"/>
<path d="M30.9602 54.8597C31.2891 54.8597 31.5574 54.6278 31.7351 54.3167C31.9152 54.0014 32.0218 53.5757 32.0218 53.1136C32.0218 52.6515 31.9152 52.2259 31.7351 51.9106C31.5574 51.5995 31.2891 51.3676 30.9602 51.3676C30.6313 51.3676 30.363 51.5995 30.1853 51.9106C30.0052 52.2259 29.8986 52.6515 29.8986 53.1136C29.8986 53.5757 30.0052 54.0014 30.1853 54.3167C30.363 54.6278 30.6313 54.8597 30.9602 54.8597Z" fill="white" stroke="white" stroke-width="0.3"/>
<defs>
<linearGradient id="paint0_linear_794_308" x1="-19" y1="88" x2="171.821" y2="71.8038" gradientUnits="userSpaceOnUse">
<stop offset="0.426427" stop-color="#212C3F"/>
<stop offset="1" stop-color="#EA142E"/>
</linearGradient>
</defs>
</svg>
