<svg width="110" height="110" viewBox="0 0 110 110" fill="none" xmlns="http://www.w3.org/2000/svg">
<rect width="110" height="110" fill="#EA142E"/>
<rect width="110" height="110" fill="url(#paint0_linear_794_306)"/>
<path d="M16.8509 64.1704C17.3733 64.2746 17.8957 63.8571 17.9999 63.4388C18.3132 62.394 19.2532 59.4693 20.507 58.216C22.0736 56.6495 24.1634 55.8137 26.4614 55.8137C28.6553 55.8137 30.7443 56.6495 32.4157 58.216C33.8774 59.7826 34.713 61.8724 34.713 64.0654C34.713 64.692 35.1305 65.1102 35.7579 65.1102C36.3845 65.1102 36.8027 64.6927 36.8027 64.0654C36.8027 61.8714 37.6385 59.7825 39.205 58.111C40.7716 56.5445 42.8614 55.7087 45.1594 55.7087C47.3533 55.7087 49.4423 56.5445 51.1137 58.111C52.6796 59.7825 53.5146 61.8722 53.5146 64.0654V86.7323C53.5146 89.0303 51.6347 90.9101 49.3367 90.9101C47.0387 90.9101 45.1588 89.0303 45.1588 86.7323C45.1588 86.1057 44.7413 85.6874 44.114 85.6874C43.4874 85.6874 43.0691 86.1049 43.0691 86.7323C43.0691 90.1793 45.8896 93 49.3368 93C52.7841 93 55.6046 90.1795 55.6046 86.7323V64.0654C55.6046 61.8714 56.4403 59.7825 58.0069 58.111C59.5734 56.5445 61.6632 55.7087 63.9612 55.7087C66.1552 55.7087 68.2441 56.5445 69.9156 58.111C71.4814 59.7825 72.3171 61.8722 72.3171 64.0654C72.3171 64.692 72.7346 65.1102 73.362 65.1102C73.9886 65.1102 74.4068 64.6927 74.4068 64.0654C74.4068 61.8714 75.2426 59.7825 76.8091 58.111C78.3757 56.5445 80.4655 55.7087 82.7635 55.7087C84.9574 55.7087 87.0464 56.5445 88.7178 58.111C89.9711 59.3643 90.9118 62.2889 91.225 63.3338C91.3292 63.8562 91.8516 64.1695 92.374 64.0653C92.8964 63.9612 93.314 63.5429 93.314 63.0205C93.314 42.0249 76.4966 24.9986 55.7099 24.3718V24.2676V19.0449C55.7099 18.4182 55.2924 18 54.665 18C54.0384 18 53.6201 18.4175 53.6201 19.0449V24.2676V24.3718C32.8334 24.8943 16.016 42.0251 16.016 63.0205C15.9119 63.6478 16.3294 64.0653 16.8518 64.1703L16.8509 64.1704ZM54.5594 26.5663C72.7349 26.5663 87.8808 39.8323 90.7011 57.2763C90.492 57.0672 90.3878 56.8588 90.1787 56.7539C88.1938 54.769 85.5824 53.725 82.762 53.725C79.9415 53.725 77.3301 54.7699 75.3452 56.7539C74.5095 57.5896 73.7787 58.5295 73.3604 59.5743C72.8379 58.5295 72.2113 57.5895 71.3755 56.7539C69.3907 54.769 66.7793 53.725 63.9588 53.725C61.1383 53.725 58.5269 54.7699 56.5421 56.7539C56.0196 57.2763 55.4972 57.9029 55.1839 58.5295C54.9748 58.4253 54.7664 58.3204 54.5573 58.3204C54.3482 58.3204 54.1398 58.4246 53.9307 58.5295C53.5132 57.9029 53.0949 57.3805 52.5725 56.7539C50.5877 54.769 47.9763 53.725 45.1558 53.725C42.3353 53.725 39.7239 54.7699 37.739 56.7539C36.9033 57.5896 36.1725 58.5295 35.7542 59.5743C35.2318 58.5295 34.6051 57.5895 33.7693 56.7539C31.7845 54.769 29.1731 53.725 26.3526 53.725C23.5321 53.725 20.9207 54.7699 18.9359 56.7539C18.7268 56.963 18.6226 57.1714 18.4134 57.3805C21.2369 39.9364 36.3828 26.566 54.5589 26.566L54.5594 26.5663Z" fill="white"/>
<defs>
<linearGradient id="paint0_linear_794_306" x1="-19" y1="88" x2="171.821" y2="71.8038" gradientUnits="userSpaceOnUse">
<stop offset="0.426427" stop-color="#212C3F"/>
<stop offset="1" stop-color="#EA142E"/>
</linearGradient>
</defs>
</svg>
