<svg width="110" height="110" viewBox="0 0 110 110" fill="none" xmlns="http://www.w3.org/2000/svg">
<rect width="110" height="110" fill="#EA142E"/>
<rect width="110" height="110" fill="url(#paint0_linear_4072_100)"/>
<path d="M39.6927 24.2408V24.2408C39.6927 21.9869 41.5264 20.154 43.78 20.154H84.7604C87.0139 20.154 88.8477 21.9868 88.8477 24.2408V84.7411C88.8477 86.995 87.014 88.8279 84.7604 88.8279H56.2353C55.8617 88.8279 55.5593 89.1316 55.5593 89.5048C55.5593 89.8774 55.8616 90.1818 56.2353 90.1818H84.7604C87.7602 90.1818 90.2 87.7408 90.2 84.7417V24.2401C90.2 21.2409 87.76 18.8 84.7604 18.8H84.5915L84.5914 18.8007H43.7799C40.7801 18.8007 38.3403 21.2417 38.3403 24.2408V31.5104C38.3403 31.883 38.6426 32.1874 39.0163 32.1874C39.3898 32.1874 39.6922 31.8836 39.6922 31.5104L39.6927 24.2408Z" fill="white" stroke="white" stroke-width="0.4"/>
<path d="M64.2696 80.2033L64.2695 80.2033C62.8713 80.2039 61.7336 81.3409 61.7336 82.7397C61.7336 84.1386 62.8707 85.2761 64.2696 85.2761C65.6685 85.2761 66.806 84.139 66.806 82.7397C66.806 81.3409 65.6689 80.2033 64.2696 80.2033ZM65.4536 82.7397C65.4536 83.392 64.9224 83.9223 64.2695 83.9223C63.6168 83.9223 63.0859 83.3917 63.0859 82.7397C63.0859 82.0873 63.6167 81.5572 64.2695 81.5572C64.9223 81.5572 65.4536 82.0879 65.4536 82.7397Z" fill="white" stroke="white" stroke-width="0.4"/>
<path d="M65.7585 24.7799C66.1321 24.7799 66.4345 24.4761 66.4345 24.1029C66.4345 23.7304 66.1322 23.426 65.7585 23.426H62.7821C62.4086 23.426 62.1062 23.7297 62.1062 24.1029C62.1062 24.4755 62.4085 24.7799 62.7821 24.7799H65.7585Z" fill="white" stroke="white" stroke-width="0.4"/>
<path d="M47.8711 35.4357H26.2396C23.2398 35.4357 20.8 37.8768 20.8 40.8758V86.6345C20.8 89.6337 23.24 92.0746 26.2396 92.0746H47.8711C50.8708 92.0746 53.3107 89.6335 53.3107 86.6345V40.8758C53.3107 37.8767 50.8712 35.4357 47.8711 35.4357ZM51.9583 86.6345C51.9583 88.8884 50.1247 90.7212 47.8711 90.7212H26.2396C23.9861 90.7212 22.1523 88.8885 22.1523 86.6345V40.8758C22.1523 38.622 23.986 36.7891 26.2396 36.7891H47.8711C50.1245 36.7891 51.9583 38.6219 51.9583 40.8758V86.6345Z" fill="white" stroke="white" stroke-width="0.4"/>
<path d="M37.0566 82.0959C35.6578 82.0959 34.5202 83.233 34.5202 84.6323C34.5202 86.0311 35.6574 87.1687 37.0566 87.1687C38.455 87.1687 39.5927 86.0316 39.5927 84.6323C39.5927 83.2331 38.4555 82.0959 37.0566 82.0959ZM37.0566 85.8149C36.4038 85.8149 35.8725 85.2842 35.8725 84.6323C35.8725 83.98 36.4037 83.4498 37.0566 83.4498C37.7094 83.4498 38.2402 83.9804 38.2402 84.6323C38.2402 85.2843 37.7094 85.8149 37.0566 85.8149Z" fill="white" stroke="white" stroke-width="0.4"/>
<path d="M34.893 40.7375C34.8924 41.1111 35.1952 41.4147 35.569 41.4147H38.5459C38.9194 41.4147 39.2219 41.1109 39.2219 40.7377C39.2219 40.3651 38.9196 40.0607 38.5459 40.0607H35.569C35.1955 40.0607 34.8931 40.3644 34.893 40.7375ZM34.893 40.7375C34.893 40.7376 34.893 40.7376 34.893 40.7377H35.093L34.893 40.7373C34.893 40.7374 34.893 40.7375 34.893 40.7375Z" fill="white" stroke="white" stroke-width="0.4"/>
<defs>
<linearGradient id="paint0_linear_4072_100" x1="-19" y1="88" x2="171.821" y2="71.8038" gradientUnits="userSpaceOnUse">
<stop offset="0.426427" stop-color="#212C3F"/>
<stop offset="1" stop-color="#EA142E"/>
</linearGradient>
</defs>
</svg>
