<svg width="110" height="110" viewBox="0 0 110 110" fill="none" xmlns="http://www.w3.org/2000/svg">
<rect width="110" height="110" fill="#EA142E"/>
<rect width="110" height="110" fill="url(#paint0_linear_4072_101)"/>
<path d="M30.5177 19.0003C30.0947 19.0808 29.7599 19.4929 29.7676 19.9237V45.7704C29.7605 46.2578 30.2029 46.7066 30.6909 46.7066C31.1784 46.7066 31.6207 46.2578 31.6143 45.7704V20.8468H74.9998C75.4872 20.8539 75.936 20.4115 75.936 19.9234C75.936 19.436 75.4872 18.9936 74.9998 19.0001H30.5198L30.5177 19.0003ZM36.9792 25.4618C36.5562 25.5423 36.2214 25.9544 36.2291 26.3852V52.2319C36.222 52.7193 36.6644 53.1681 37.1524 53.1681C37.6399 53.1681 38.0822 52.7193 38.0758 52.2319V27.3083H81.4613C81.9487 27.3147 82.3975 26.873 82.3975 26.3849C82.3975 25.8975 81.9487 25.4551 81.4613 25.4616H36.9813L36.9792 25.4618ZM43.4407 31.9233C43.0177 32.0038 42.6829 32.4159 42.6906 32.8467V58.6934C42.6906 59.177 43.1304 59.6167 43.614 59.6167H87.5378C88.0252 59.6258 88.474 59.1815 88.474 58.6934C88.474 58.206 88.0252 57.7636 87.5378 57.77H44.5387V33.7695H86.9995V58.6931C86.9924 59.1812 87.4347 59.6294 87.9228 59.6294C88.4102 59.6294 88.8526 59.1806 88.8462 58.6931V32.8464C88.8462 32.3629 88.4064 31.9231 87.9228 31.9231H43.4428L43.4407 31.9233ZM65.7681 38.3849C61.7006 38.3849 58.3832 41.7022 58.3832 45.7698C58.3832 49.8373 61.7006 53.1547 65.7681 53.1547C69.8357 53.1547 73.1531 49.8373 73.1531 45.7698C73.1531 41.7022 69.8357 38.3849 65.7681 38.3849ZM77.5953 38.3849C77.1117 38.4299 76.7131 38.9109 76.7589 39.3945C76.8039 39.8781 77.2849 40.2766 77.7685 40.2309H81.4605C81.948 40.238 82.3968 39.7956 82.3968 39.3076C82.3968 38.8201 81.948 38.3778 81.4605 38.3842L77.5953 38.3849ZM65.7681 40.2309C68.8376 40.2309 71.3064 42.6997 71.3064 45.7698C71.3064 48.8399 68.8376 51.3087 65.7681 51.3087C62.6987 51.3087 60.2299 48.8399 60.2299 45.7698C60.2299 42.6997 62.6987 40.2309 65.7681 40.2309ZM49.9024 51.3079C49.4188 51.3529 49.0203 51.8339 49.066 52.3175C49.1111 52.8011 49.5921 53.1996 50.0756 53.1539H53.7677C54.2551 53.1629 54.7039 52.7187 54.7039 52.2306C54.7039 51.7425 54.2551 51.3008 53.7677 51.3072L49.9024 51.3079ZM38.9987 64.2315C33.6485 64.2315 30.1734 65.5309 27.1141 67.2314C24.0544 68.9326 21.417 70.9654 17.4215 72.6261C16.9289 72.7716 16.6346 73.3833 16.8284 73.8592C17.0222 74.335 17.6597 74.5675 18.1143 74.3279C22.335 72.5732 25.1091 70.4594 28.0084 68.8471C30.9078 67.2348 33.9393 66.0776 38.9985 66.0776C41.7048 66.0776 44.3686 67.2823 49.0369 67.8946C52.212 68.3112 56.718 67.9378 61.1525 67.9519C61.1718 67.9526 61.1911 67.9526 61.2104 67.9519C64.1995 67.7607 66.0049 68.3724 67.066 69.337C68.0692 70.2487 68.4929 71.5855 68.5083 73.2023C68.0557 73.8835 66.5972 74.8956 64.3836 75.7404C62.0424 76.6335 58.9916 77.3901 55.6722 77.9039C49.0337 78.9316 41.3698 78.9252 36.5476 77.2118C36.0879 77.0134 35.4871 77.2716 35.3152 77.7417C35.1426 78.2117 35.4343 78.797 35.9134 78.9426C41.2957 80.855 49.0883 80.8099 55.933 79.75C59.3554 79.2201 62.535 78.43 65.0488 77.4713C67.2799 76.62 68.9025 75.6496 69.8375 74.3555L84.4051 71.6151C88.0914 70.8881 90.7064 71.8984 91.703 73.8938C92.0764 74.6407 92.5523 75.5409 92.5394 76.2015C92.533 76.5318 92.4486 76.8055 92.1647 77.1249C91.8929 77.4301 91.3695 77.7894 90.4919 78.1055C90.4513 78.1204 90.4475 78.1204 90.4056 78.1339C77.7387 81.0894 63.8996 84.8497 51.751 87.3068C49.507 87.7601 47.0203 88.2096 46.357 88.2302L15.8948 89.1535C15.4112 89.1683 14.985 89.6223 15.0004 90.1052C15.0152 90.5888 15.4692 91.015 15.9527 90.9996L46.4149 90.0762C47.5926 90.0402 49.8417 89.5515 52.0974 89.0956C64.365 86.6139 78.254 82.8401 90.8954 79.8936C90.925 79.8846 90.9534 79.8762 90.9817 79.8653C92.1388 79.4693 92.983 78.9728 93.5489 78.3367C94.1155 77.7005 94.3718 76.9285 94.3853 76.2312C94.413 74.8352 93.6957 73.6988 93.3757 73.0581C91.9134 70.1315 88.2464 68.9725 84.0585 69.7987L70.2411 72.3949C70.0853 70.7144 69.5714 69.1291 68.308 67.981C66.7768 66.5896 64.415 65.9083 61.1544 66.106H61.0964C56.5756 66.0931 52.0445 66.4408 49.2693 66.0777C44.8392 65.4969 42.2241 64.2315 38.9987 64.2315Z" fill="white"/>
<defs>
<linearGradient id="paint0_linear_4072_101" x1="-19" y1="88" x2="171.821" y2="71.8038" gradientUnits="userSpaceOnUse">
<stop offset="0.426427" stop-color="#212C3F"/>
<stop offset="1" stop-color="#EA142E"/>
</linearGradient>
</defs>
</svg>
