<svg width="69" height="63" viewBox="0 0 69 63" fill="none" xmlns="http://www.w3.org/2000/svg">
<path d="M67.5918 14.016H39.7418V0.523963C39.7418 0.234356 39.5075 0 39.2179 0H28.6844C28.3948 0 28.1604 0.234356 28.1604 0.523963V14.016H0.523963C0.234356 14.016 0 14.2504 0 14.54V62.476C0 62.7656 0.234356 63 0.523963 63H67.5912C67.8809 63 68.1152 62.7656 68.1152 62.476V14.54C68.1152 14.2504 67.8809 14.016 67.5912 14.016H67.5918ZM29.2089 1.04793H38.6944V14.5282C38.6944 14.5323 38.6924 14.5353 38.6924 14.5394C38.6924 14.5435 38.6944 14.5471 38.6944 14.5507V18.0998H29.2089V1.04793ZM67.0678 61.9521H1.04845V15.0639H28.1609V18.6243C28.1609 18.9139 28.3953 19.1482 28.6849 19.1482H39.2184C39.508 19.1482 39.7423 18.9139 39.7423 18.6243V15.0639H67.0683L67.0678 61.9521Z" fill="#EA142E"/>
<path d="M24.8142 25.4102H6.97196C6.68235 25.4102 6.448 25.6445 6.448 25.9341V47.4402C6.448 47.7298 6.68235 47.9641 6.97196 47.9641H24.8142C25.1038 47.9641 25.3382 47.7298 25.3382 47.4402V25.9341C25.3382 25.6445 25.1038 25.4102 24.8142 25.4102ZM24.2903 46.9162H7.49592V26.4581H24.2903V46.9162Z" fill="#EA142E"/>
<path d="M32.4602 28.083C32.4602 28.3727 32.6946 28.607 32.9842 28.607H61.1446C61.4342 28.607 61.6685 28.3727 61.6685 28.083C61.6685 27.7934 61.4342 27.5591 61.1446 27.5591H32.9842C32.6951 27.5591 32.4602 27.7934 32.4602 28.083V28.083Z" fill="#EA142E"/>
<path d="M61.1446 37.9854H32.9842C32.6946 37.9854 32.4602 38.2197 32.4602 38.5093C32.4602 38.7989 32.6946 39.0333 32.9842 39.0333H61.1446C61.4342 39.0333 61.6685 38.7989 61.6685 38.5093C61.6685 38.2197 61.4342 37.9854 61.1446 37.9854Z" fill="#EA142E"/>
<path d="M61.1446 48.4116H32.9842C32.6946 48.4116 32.4602 48.646 32.4602 48.9356C32.4602 49.2252 32.6946 49.4595 32.9842 49.4595H61.1446C61.4342 49.4595 61.6685 49.2252 61.6685 48.9356C61.6685 48.646 61.4342 48.4116 61.1446 48.4116Z" fill="#EA142E"/>
<path d="M24.8142 54.4487H6.97196C6.68235 54.4487 6.448 54.6831 6.448 54.9727C6.448 55.2623 6.68235 55.4967 6.97196 55.4967H24.8142C25.1038 55.4967 25.3382 55.2623 25.3382 54.9727C25.3382 54.6831 25.1038 54.4487 24.8142 54.4487Z" fill="#EA142E"/>
</svg>
