<svg width="81" height="71" viewBox="0 0 81 71" fill="none" xmlns="http://www.w3.org/2000/svg">
<g filter="url(#filter0_d_448_161)">
<path d="M7.96431 63H46.8114C47.3439 63 47.8624 62.8945 48.3505 62.6869C48.3518 62.6862 48.3518 62.6848 48.3532 62.6841C49.6271 62.8896 50.9323 63 52.263 63C65.764 63 76.7488 52.0162 76.7488 38.5142C76.7488 25.0132 65.7643 14.0284 52.263 14.0284C51.5924 14.0284 50.9301 14.0631 50.2728 14.1159C50.599 13.5313 50.774 12.8809 50.774 12.2013V3.96326C50.774 1.77788 48.9968 0 46.8121 0L7.96326 0.00138841C5.77788 0.00138841 4 1.77927 4 3.96465V12.2027C4 13.8834 5.05589 15.3142 6.53602 15.8896C5.05598 16.4651 4 17.8959 4 19.5765V27.8146C4 29.4952 5.05589 30.926 6.53602 31.5015C5.05598 32.077 4 33.5077 4 35.1884V43.4265C4 45.1071 5.05589 46.5379 6.53602 47.1134C5.05598 47.6889 4 49.1196 4 50.8003V59.0383C4 61.2209 5.77788 62.9988 7.96326 62.9988L7.96431 63ZM52.2637 14.5829C65.4599 14.5829 76.1951 25.3187 76.1951 38.5142C76.1951 51.7097 65.4592 62.4455 52.2637 62.4455C39.0676 62.4455 28.3324 51.7097 28.3324 38.5142C28.3324 26.16 37.7423 15.9637 49.7704 14.7126C49.7732 14.7126 49.7752 14.7126 49.7773 14.7119C50.5951 14.6272 51.4247 14.5828 52.2639 14.5828L52.2637 14.5829ZM4.5557 12.2031V3.96501C4.5557 2.08441 6.08573 0.55498 7.96573 0.55498H46.8128C48.6927 0.55498 50.2221 2.08432 50.2221 3.96501V12.2031C50.2221 12.9195 49.9958 13.5984 49.5779 14.1802C47.5008 14.4079 45.5014 14.8973 43.6127 15.6137H7.96448C6.08459 15.6137 4.55445 14.0837 4.55445 12.2031L4.5557 12.2031ZM4.5557 27.8144V19.5764C4.5557 17.6958 6.08573 16.1663 7.96573 16.1663H42.281C35.9222 19.0181 30.9898 24.5003 28.8878 31.225H7.96519C6.08531 31.225 4.55517 29.6949 4.55517 27.8144H4.5557ZM4.5557 43.4258V35.1877C4.5557 33.3071 6.08573 31.7777 7.96573 31.7777H28.7301C28.1158 33.92 27.7798 36.1783 27.7798 38.5149C27.7798 41.4355 28.2956 44.2365 29.2376 46.8356L7.96669 46.8363C6.0868 46.8363 4.55666 45.3063 4.55666 43.4257L4.5557 43.4258ZM4.5557 50.7996C4.5557 48.919 6.08573 47.3895 7.96573 47.3895H29.4499C32.3932 54.9294 38.9661 60.6621 47.0126 62.4281C46.9452 62.4323 46.88 62.4482 46.8119 62.4482L7.96486 62.4475C6.08497 62.4475 4.55483 60.9182 4.55483 59.0375L4.5557 50.7996Z" fill="#EA142E"/>
<path d="M42.7542 35.184H40.3154C40.1633 35.184 40.0391 35.3075 40.0391 35.4603C40.0391 35.613 40.1633 35.7366 40.3154 35.7366H42.5987C42.3619 36.6251 42.2238 37.5526 42.2238 38.5148C42.2238 39.4763 42.3619 40.4045 42.5987 41.2923H40.3154C40.1633 41.2923 40.0391 41.4159 40.0391 41.5686C40.0391 41.7214 40.1633 41.8449 40.3154 41.8449H42.7535C44.162 46.183 48.2376 49.3298 53.0395 49.3298C54.5904 49.3298 56.0927 49.0056 57.5047 48.3642C57.6442 48.301 57.7053 48.1372 57.6421 47.9983C57.5775 47.8588 57.4144 47.7977 57.2763 47.8609C55.9371 48.4683 54.5119 48.7765 53.0402 48.7765C48.5473 48.7765 44.7298 45.8712 43.3429 41.8442H53.2986C53.4506 41.8442 53.5749 41.7206 53.5749 41.5679C53.5749 41.4151 53.4506 41.2916 53.2986 41.2916H43.1695C42.9202 40.4065 42.7772 39.4776 42.7772 38.514C42.7772 37.5505 42.9202 36.621 43.1695 35.7358H53.2979C53.4499 35.7358 53.5742 35.6122 53.5742 35.4595C53.5742 35.3068 53.4499 35.1832 53.2979 35.1832H43.3422C44.7299 31.1568 48.5473 28.2515 53.0395 28.2515C54.5112 28.2515 55.9372 28.5591 57.2755 29.1665C57.4151 29.229 57.5782 29.1686 57.6414 29.029C57.7053 28.8895 57.6435 28.7264 57.5039 28.6632C56.0926 28.0231 54.5903 27.6982 53.0388 27.6982C48.2383 27.6996 44.1627 30.8465 42.7542 35.1838V35.184Z" fill="#EA142E"/>
</g>
<defs>
<filter id="filter0_d_448_161" x="0" y="0" width="80.7488" height="71" filterUnits="userSpaceOnUse" color-interpolation-filters="sRGB">
<feFlood flood-opacity="0" result="BackgroundImageFix"/>
<feColorMatrix in="SourceAlpha" type="matrix" values="0 0 0 0 0 0 0 0 0 0 0 0 0 0 0 0 0 0 127 0" result="hardAlpha"/>
<feOffset dy="4"/>
<feGaussianBlur stdDeviation="2"/>
<feComposite in2="hardAlpha" operator="out"/>
<feColorMatrix type="matrix" values="0 0 0 0 0 0 0 0 0 0 0 0 0 0 0 0 0 0 0.25 0"/>
<feBlend mode="normal" in2="BackgroundImageFix" result="effect1_dropShadow_448_161"/>
<feBlend mode="normal" in="SourceGraphic" in2="effect1_dropShadow_448_161" result="shape"/>
</filter>
</defs>
</svg>
