<svg width="49" height="61" viewBox="0 0 49 61" fill="none" xmlns="http://www.w3.org/2000/svg">
<path d="M24.1317 0C10.8266 0 0 10.8252 0 24.1317C0 37.2609 22.9 59.7964 23.8753 60.7491L24.1321 61L24.3889 60.7491C25.3634 59.7962 48.2642 37.2609 48.2642 24.1317C48.2642 10.8266 37.438 0 24.1325 0H24.1317ZM24.1317 59.9699C21.5655 57.4075 0.734006 36.224 0.734006 24.1317C0.734006 11.2301 11.2298 0.734007 24.1317 0.734007C37.0337 0.734007 47.5295 11.2303 47.5295 24.1317C47.5295 36.2236 26.697 57.4084 24.1317 59.9699Z" fill="#EA142E"/>
<path d="M24.1314 15.6753C19.4682 15.6753 15.6741 19.469 15.6741 24.1316C15.6741 28.7948 19.4683 32.5889 24.1314 32.5889C28.7944 32.5889 32.5877 28.7952 32.5877 24.1316C32.5877 19.4684 28.7944 15.6753 24.1314 15.6753ZM24.1314 31.8549C19.8717 31.8549 16.4076 28.3902 16.4076 24.1311C16.4076 19.872 19.8722 16.4078 24.1314 16.4078C28.3905 16.4078 31.8546 19.8725 31.8546 24.1311C31.8546 28.3902 28.3905 31.8549 24.1314 31.8549Z" fill="#EA142E"/>
</svg>
