<svg width="76" height="76" viewBox="0 0 76 76" fill="none" xmlns="http://www.w3.org/2000/svg">
<path d="M74.938 75H1.06201V1H74.938V75Z" stroke="#EA142E" stroke-width="1.4" stroke-miterlimit="10" stroke-linecap="round" stroke-linejoin="round"/>
<path d="M1.31372 14.1475H74.8129" stroke="#EA142E" stroke-width="1.4" stroke-miterlimit="10" stroke-linecap="round" stroke-linejoin="round"/>
<path d="M50.8977 1.75049V13.5205" stroke="#EA142E" stroke-width="1.4" stroke-miterlimit="10" stroke-linecap="round" stroke-linejoin="round"/>
<path d="M58.6603 7.51128C58.6603 9.68082 55.4043 9.68082 55.4043 7.51128C55.4043 5.33999 58.6603 5.33999 58.6603 7.51128Z" stroke="#EA142E" stroke-width="1.4" stroke-miterlimit="10" stroke-linecap="round" stroke-linejoin="round"/>
<path d="M64.1701 7.51128C64.1701 9.68082 60.9141 9.68082 60.9141 7.51128C60.9141 5.33999 64.1701 5.33999 64.1701 7.51128Z" stroke="#EA142E" stroke-width="1.4" stroke-miterlimit="10" stroke-linecap="round" stroke-linejoin="round"/>
<path d="M69.5542 7.51128C69.5542 9.68082 66.2998 9.68082 66.2998 7.51128C66.2998 5.33999 69.5542 5.33999 69.5542 7.51128Z" stroke="#EA142E" stroke-width="1.4" stroke-miterlimit="10" stroke-linecap="round" stroke-linejoin="round"/>
<path d="M24.4789 42.9458C24.4789 44.3992 23.3015 45.5748 21.8482 45.5748C20.3966 45.5748 19.2192 44.3992 19.2192 42.9458C19.2192 41.4943 20.3966 40.3169 21.8482 40.3169C23.3015 40.3169 24.4789 41.4942 24.4789 42.9458Z" stroke="#EA142E" stroke-width="1.4" stroke-miterlimit="10" stroke-linecap="round" stroke-linejoin="round"/>
<path d="M34.3695 56.7193C34.3695 58.1709 33.1921 59.3482 31.7405 59.3482C30.2889 59.3482 29.1116 58.1709 29.1116 56.7193C29.1116 55.2677 30.2889 54.0903 31.7405 54.0903C33.1921 54.0903 34.3695 55.2677 34.3695 56.7193Z" stroke="#EA142E" stroke-width="1.4" stroke-miterlimit="10" stroke-linecap="round" stroke-linejoin="round"/>
<path d="M46.39 30.3011C46.39 31.7527 45.2127 32.93 43.7593 32.93C42.3077 32.93 41.1304 31.7527 41.1304 30.3011C41.1304 28.8478 42.3077 27.6704 43.7593 27.6704C45.2126 27.6704 46.39 28.8478 46.39 30.3011Z" stroke="#EA142E" stroke-width="1.4" stroke-miterlimit="10" stroke-linecap="round" stroke-linejoin="round"/>
<path d="M56.9076 44.3231C56.9076 45.7747 55.7302 46.952 54.2769 46.952C52.8253 46.952 51.6479 45.7747 51.6479 44.3231C51.6479 42.8697 52.8253 41.6924 54.2769 41.6924C55.7302 41.6924 56.9076 42.8697 56.9076 44.3231Z" stroke="#EA142E" stroke-width="1.4" stroke-miterlimit="10" stroke-linecap="round" stroke-linejoin="round"/>
<path d="M23.4761 45.7007L29.9864 54.716" stroke="#EA142E" stroke-width="1.4" stroke-miterlimit="10" stroke-linecap="round" stroke-linejoin="round"/>
<path d="M13.959 63.2303L20.8466 45.7007" stroke="#EA142E" stroke-width="1.4" stroke-miterlimit="10" stroke-linecap="round" stroke-linejoin="round"/>
<path d="M52.5253 41.4438L46.0132 32.3027" stroke="#EA142E" stroke-width="1.4" stroke-miterlimit="10" stroke-linecap="round" stroke-linejoin="round"/>
<path d="M62.0414 23.7886L55.1538 41.3182" stroke="#EA142E" stroke-width="1.4" stroke-miterlimit="10" stroke-linecap="round" stroke-linejoin="round"/>
<path d="M33.7437 54.9665L42.5075 33.1797" stroke="#EA142E" stroke-width="1.4" stroke-miterlimit="10" stroke-linecap="round" stroke-linejoin="round"/>
</svg>
