<svg width="85" height="56" viewBox="0 0 85 56" fill="none" xmlns="http://www.w3.org/2000/svg">
<path d="M0 0.0566406V50.747H1.45953V55.127H7.25407V50.747H77.7453V55.127H83.5391V50.747L85 50.7477V0.0573433L0 0.0566406ZM6.20488 54.0768H2.50933V50.7459H6.2056L6.20488 54.0768ZM82.4886 54.0768H78.7938V50.7459H82.4886V54.0768ZM83.9495 49.6967H1.04754V1.10578H83.9477L83.9495 49.6967Z" fill="#EA142E"/>
<path d="M34.486 18.9125V20.0685L29.675 30.8125H27.873L32.582 20.3915H27.142V22.5165H25.51V18.9125H34.486ZM39.0773 23.6555C40.7773 23.6555 42.024 23.9785 42.8173 24.6245C43.622 25.2592 44.0243 26.1318 44.0243 27.2425C44.0243 27.9452 43.8543 28.5798 43.5143 29.1465C43.1857 29.7018 42.6813 30.1438 42.0013 30.4725C41.3327 30.7898 40.5053 30.9485 39.5193 30.9485C38.6807 30.9485 37.8703 30.8238 37.0883 30.5745C36.3063 30.3138 35.6603 29.9568 35.1503 29.5035L35.9323 28.1605C36.3403 28.5458 36.8617 28.8575 37.4963 29.0955C38.131 29.3222 38.7997 29.4355 39.5023 29.4355C40.3977 29.4355 41.089 29.2485 41.5763 28.8745C42.075 28.4892 42.3243 27.9678 42.3243 27.3105C42.3243 26.5965 42.0523 26.0582 41.5083 25.6955C40.9643 25.3215 40.035 25.1345 38.7203 25.1345H36.0173L36.6463 18.9125H43.3613V20.3915H38.0743L37.7513 23.6555H39.0773ZM47.857 25.3045C47.0297 25.3045 46.361 25.0042 45.851 24.4035C45.341 23.8028 45.086 23.0208 45.086 22.0575C45.086 21.0942 45.341 20.3122 45.851 19.7115C46.361 19.1108 47.0297 18.8105 47.857 18.8105C48.6844 18.8105 49.3474 19.1108 49.846 19.7115C50.356 20.3008 50.611 21.0828 50.611 22.0575C50.611 23.0322 50.356 23.8198 49.846 24.4205C49.3474 25.0098 48.6844 25.3045 47.857 25.3045ZM55.031 18.9125H56.34L48.214 30.8125H46.905L55.031 18.9125ZM47.857 24.3355C48.3784 24.3355 48.7864 24.1372 49.081 23.7405C49.3757 23.3325 49.523 22.7715 49.523 22.0575C49.523 21.3435 49.3757 20.7882 49.081 20.3915C48.7864 19.9835 48.3784 19.7795 47.857 19.7795C47.347 19.7795 46.939 19.9835 46.633 20.3915C46.3384 20.7995 46.191 21.3548 46.191 22.0575C46.191 22.7602 46.3384 23.3155 46.633 23.7235C46.939 24.1315 47.347 24.3355 47.857 24.3355ZM55.388 30.9145C54.5607 30.9145 53.892 30.6198 53.382 30.0305C52.8834 29.4298 52.634 28.6422 52.634 27.6675C52.634 26.6928 52.8834 25.9108 53.382 25.3215C53.892 24.7208 54.5607 24.4205 55.388 24.4205C56.2154 24.4205 56.884 24.7208 57.394 25.3215C57.904 25.9222 58.159 26.7042 58.159 27.6675C58.159 28.6308 57.904 29.4128 57.394 30.0135C56.884 30.6142 56.2154 30.9145 55.388 30.9145ZM55.388 29.9455C55.898 29.9455 56.3004 29.7415 56.595 29.3335C56.901 28.9255 57.054 28.3702 57.054 27.6675C57.054 26.9648 56.901 26.4095 56.595 26.0015C56.3004 25.5935 55.898 25.3895 55.388 25.3895C54.8667 25.3895 54.4587 25.5935 54.164 26.0015C53.8694 26.3982 53.722 26.9535 53.722 27.6675C53.722 28.3815 53.8694 28.9425 54.164 29.3505C54.4587 29.7472 54.8667 29.9455 55.388 29.9455Z" fill="#EA142E"/>
</svg>
