<svg width="69" height="69" viewBox="0 0 69 69" fill="none" xmlns="http://www.w3.org/2000/svg">
<path d="M48.1249 19.8073C47.1915 20.7407 46.2505 21.6816 45.3172 22.6149C43.0547 24.8775 40.7995 27.1327 38.5369 29.3952C35.8114 32.1208 33.0858 34.8464 30.3602 37.572C28.008 39.9242 25.6483 42.2839 23.2962 44.636C22.1537 45.7785 20.9589 46.8912 19.8537 48.0784C19.8388 48.0934 19.8239 48.1083 19.8089 48.1232C19.1294 48.8028 20.1823 49.8631 20.8618 49.1761L45.6912 24.3467C46.8337 23.2042 48.0284 22.0916 49.1336 20.9043L49.1785 20.8595C49.8654 20.1874 48.8125 19.127 48.1256 19.8066L48.1249 19.8073Z" fill="#EA142E"/>
<path d="M27.2322 27.2218C25.7909 28.6331 23.5583 29.0886 21.7063 28.2075C19.8096 27.3039 18.697 25.3325 18.8837 23.2417C19.0703 21.2031 20.631 19.4783 22.595 18.9928C24.5589 18.5074 26.7095 19.3214 27.8296 21.0091C29.1214 22.9655 28.8675 25.5567 27.2322 27.2219C26.5601 27.9089 27.613 28.9617 28.2851 28.2748C30.1668 26.3556 30.6671 23.4808 29.547 21.039C28.4568 18.6494 25.8133 17.1261 23.1999 17.3875C20.5266 17.6563 18.2117 19.5529 17.562 22.189C16.9124 24.8099 17.9952 27.5729 20.2204 29.0813C22.722 30.7764 26.1495 30.3732 28.2851 28.2749C28.9721 27.6103 27.9192 26.5499 27.2322 27.222L27.2322 27.2218Z" fill="#EA142E"/>
<path d="M48.708 48.6842C47.2668 50.0955 45.0341 50.551 43.1821 49.6699C41.2854 48.7663 40.1728 46.7949 40.3595 44.7041C40.5462 42.6655 42.1069 40.9407 44.0708 40.4553C46.0347 39.9698 48.1853 40.7838 49.3054 42.4715C50.6047 44.4279 50.3433 47.0191 48.708 48.6843C48.0359 49.3713 49.0888 50.4241 49.7609 49.7372C51.6426 47.818 52.1429 44.9432 51.0229 42.5014C49.9326 40.1118 47.2892 38.5885 44.6757 38.8499C42.0024 39.1187 39.6876 41.0153 39.0379 43.6514C38.3882 46.2723 39.471 49.0353 41.6963 50.5437C44.1978 52.2388 47.6253 51.8356 49.7609 49.7373C50.4554 49.0727 49.395 48.0123 48.708 48.6844L48.708 48.6842Z" fill="#EA142E"/>
<path d="M67.5034 34.4954C67.496 37.9677 66.9583 41.4176 65.8906 44.7256C64.8601 47.8992 63.3368 50.8937 61.4103 53.6117C59.5135 56.285 57.1987 58.6896 54.6076 60.6833C51.9642 62.7144 48.9997 64.3571 45.8709 65.4996C42.645 66.6795 39.2473 67.3514 35.8199 67.4784C32.3327 67.6128 28.8379 67.2096 25.4777 66.2538C22.2593 65.3428 19.1977 63.9314 16.405 62.102C13.6346 60.2874 11.148 58.0398 9.03465 55.486C6.93636 52.9546 5.20387 50.0722 3.96432 47.0255C2.67994 43.8668 1.87354 40.5139 1.61205 37.1089C1.34322 33.6142 1.61205 30.0897 2.44092 26.6845C3.23993 23.4063 4.53921 20.27 6.28658 17.3877C7.99654 14.565 10.1322 12.0112 12.604 9.81583C15.0906 7.60543 17.9133 5.776 20.945 4.40208C24.0141 3.00564 27.3296 2.08723 30.6749 1.70641C34.1473 1.31064 37.6793 1.44505 41.0993 2.14698C44.4148 2.81905 47.6109 3.99881 50.5679 5.6491C53.4727 7.26948 56.1087 9.31561 58.4086 11.72C60.6936 14.1171 62.6052 16.8427 64.0912 19.8072C65.6071 22.8464 66.6375 26.1246 67.1603 29.4773C67.3844 31.1351 67.5038 32.8152 67.5038 34.4954C67.5038 35.4586 68.9974 35.4586 68.9974 34.4954C68.9899 30.8962 68.4373 27.2895 67.3247 23.8694C66.2494 20.5465 64.6663 17.3878 62.6352 14.5427C60.6116 11.7051 58.1921 9.2035 55.4293 7.08282C52.6738 4.96951 49.6048 3.28946 46.349 2.09469C42.9738 0.855116 39.397 0.160661 35.8051 0.0263006C32.1909 -0.115584 28.5394 0.317524 25.0597 1.30322C21.7069 2.25156 18.496 3.72266 15.5911 5.63429C12.7013 7.53104 10.0952 9.86078 7.8923 12.5267C5.67453 15.2299 3.87487 18.2392 2.54573 21.48C1.19416 24.773 0.380264 28.2826 0.103896 31.8297C-0.179858 35.4663 0.118832 39.1626 0.985036 42.7096C1.81391 46.0997 3.16553 49.3779 4.98008 52.3573C6.76472 55.2995 8.99 57.9803 11.5662 60.2652C14.1574 62.5726 17.092 64.4917 20.2581 65.9254C23.5288 67.3964 26.9861 68.3522 30.548 68.7705C34.1696 69.1961 37.851 69.0244 41.428 68.3C44.8779 67.5981 48.2233 66.3511 51.2998 64.641C54.3016 62.9609 57.0646 60.8253 59.4391 58.3387C61.8211 55.8445 63.8373 52.9921 65.3757 49.9081C66.9588 46.7345 68.0565 43.3293 68.5867 39.8272C68.8555 38.065 68.9974 36.2877 68.9974 34.5104C68.9974 33.5322 67.5038 33.5322 67.5038 34.4955L67.5034 34.4954Z" fill="#EA142E"/>
</svg>
