<svg width="78" height="75" viewBox="0 0 78 75" fill="none" xmlns="http://www.w3.org/2000/svg">
<path d="M77.0007 34.3816C76.995 34.3525 76.9932 34.3227 76.983 34.2947C76.967 34.2513 76.9424 34.2147 76.9173 34.177C76.9007 34.1513 76.8875 34.125 76.8664 34.1022C76.8361 34.069 76.799 34.045 76.7618 34.0193C76.7401 34.0039 76.7247 33.9828 76.7001 33.9702L41.5904 16.1769C42.4064 15.4307 42.9218 14.3616 42.9218 13.1719C42.9218 11.1228 41.4018 9.42119 39.43 9.13668V7.17275H45.2296C45.553 7.17275 45.8147 6.91105 45.8147 6.58764V0.585113C45.8147 0.261706 45.553 0 45.2296 0H32.46C32.1366 0 31.8749 0.261706 31.8749 0.585113V6.58764C31.8749 6.91105 32.1366 7.17275 32.46 7.17275H38.2596V9.68011C38.2596 10.0035 38.5213 10.2652 38.8447 10.2652C40.4475 10.2652 41.7514 11.5692 41.7514 13.1719C41.7514 14.1839 41.2297 15.0747 40.4435 15.5952L39.2555 14.9929C39.0887 14.9089 38.8933 14.9089 38.7264 14.9929L37.3876 15.6717C36.5254 15.1666 35.9386 14.2409 35.9386 13.1718C35.9386 12.8484 35.6769 12.5867 35.3535 12.5867C35.0301 12.5867 34.7684 12.8484 34.7684 13.1718C34.7684 14.4123 35.3272 15.5231 36.2043 16.2716L1.28036 33.9698C1.25579 33.9824 1.24036 34.0035 1.21865 34.0189C1.18151 34.0447 1.14437 34.0687 1.11408 34.1018C1.09351 34.1247 1.08037 34.1515 1.06323 34.1767C1.03808 34.2144 1.01352 34.2509 0.997516 34.2944C0.987231 34.3224 0.985517 34.3521 0.979804 34.3818C0.972376 34.4189 0.95752 34.4532 0.95752 34.4926V74.4149C0.95752 74.7383 1.21923 75 1.54263 75H76.4371C76.7605 75 77.0222 74.7383 77.0222 74.4149V34.4926C77.0222 34.4532 77.0081 34.4187 77.0007 34.3816ZM33.0455 1.17059H44.645V6.00289H38.8595C38.8544 6.00289 38.8504 6.00004 38.8452 6.00004C38.8401 6.00004 38.8361 6.00289 38.8309 6.00289H33.0455L33.0455 1.17059ZM38.8452 17.2495C39.4177 17.2495 39.9628 17.1295 40.4582 16.9152L73.9895 33.9084H3.99249L37.398 16.9781C37.8489 17.1507 38.3349 17.2495 38.8452 17.2495ZM75.8536 73.8314H2.12934V35.0793H75.8536V73.8314Z" fill="#EA142E"/>
<path d="M66.7183 68.4782C67.0187 68.4782 67.2618 68.257 67.2618 67.9838V40.7117C67.2618 40.4384 67.0187 40.2173 66.7183 40.2173C66.4179 40.2173 66.1748 40.4384 66.1748 40.7117V67.9838C66.1748 68.257 66.4179 68.4782 66.7183 68.4782Z" fill="#EA142E"/>
<path d="M55.8489 68.4782C56.1493 68.4782 56.3924 68.257 56.3924 67.9838V40.7117C56.3924 40.4384 56.1493 40.2173 55.8489 40.2173C55.5485 40.2173 55.3054 40.4384 55.3054 40.7117V67.9838C55.3054 68.257 55.5485 68.4782 55.8489 68.4782Z" fill="#EA142E"/>
<path d="M44.9793 68.4782C45.2797 68.4782 45.5227 68.257 45.5227 67.9838V40.7117C45.5227 40.4384 45.2797 40.2173 44.9793 40.2173C44.6789 40.2173 44.4358 40.4384 44.4358 40.7117V67.9838C44.4358 68.257 44.6789 68.4782 44.9793 68.4782Z" fill="#EA142E"/>
<path d="M33.0227 68.4782C33.3231 68.4782 33.5662 68.257 33.5662 67.9838V40.7117C33.5662 40.4384 33.3231 40.2173 33.0227 40.2173C32.7223 40.2173 32.4792 40.4384 32.4792 40.7117V67.9838C32.4792 68.257 32.7223 68.4782 33.0227 68.4782Z" fill="#EA142E"/>
<path d="M22.1531 68.4782C22.4535 68.4782 22.6966 68.257 22.6966 67.9838V40.7117C22.6966 40.4384 22.4535 40.2173 22.1531 40.2173C21.8527 40.2173 21.6096 40.4384 21.6096 40.7117V67.9838C21.6096 68.257 21.8527 68.4782 22.1531 68.4782Z" fill="#EA142E"/>
<path d="M11.2837 68.4782C11.5841 68.4782 11.8272 68.257 11.8272 67.9838V40.7117C11.8272 40.4384 11.5841 40.2173 11.2837 40.2173C10.9833 40.2173 10.7402 40.4384 10.7402 40.7117V67.9838C10.7402 68.257 10.9833 68.4782 11.2837 68.4782Z" fill="#EA142E"/>
</svg>
