<svg width="18" height="18" viewBox="0 0 18 18" fill="none" xmlns="http://www.w3.org/2000/svg">
<g opacity="0.5">
<circle cx="9" cy="9" r="7.75" stroke="#707C88" stroke-width="1.5"/>
<path fill-rule="evenodd" clip-rule="evenodd" d="M10.0457 12.0209C10.0457 12.5985 9.57749 13.0667 8.99988 13.0667C8.42228 13.0667 7.9541 12.5985 7.9541 12.0209C7.9541 11.4433 8.42228 10.9751 8.99988 10.9751C9.57749 10.9751 10.0457 11.4433 10.0457 12.0209Z" fill="#707C88"/>
<path d="M6.11771 6.89389L6.21976 6.5623C6.55135 5.28693 7.6737 4.4707 8.97447 4.4707C10.5304 4.4707 11.8824 5.69505 11.8824 7.27653C11.8824 8.5519 11.0151 9.62324 9.81627 9.9548V10.516H8.15831V9.52117C8.15831 8.95999 8.56641 8.47539 9.12759 8.42436C9.7398 8.34785 10.2499 7.88872 10.2499 7.27653C10.2499 6.58782 9.63773 6.1287 8.97457 6.1287C8.41338 6.1287 7.95427 6.4348 7.80124 6.99598L7.69919 7.32757L6.11768 6.89393L6.11771 6.89389Z" fill="#707C88"/>
</g>
</svg>
