<svg width="40" height="33" viewBox="0 0 40 33" fill="none" xmlns="http://www.w3.org/2000/svg">
<g opacity="0.5">
<path d="M16.0979 0.976571C16.367 0.976571 16.5857 0.757937 16.5857 0.488774C16.5857 0.21961 16.367 0.000976562 16.0979 0.000976562C6.61977 0.000976562 0 6.62019 0 16.0988V31.7083C0 31.9775 0.218633 32.1961 0.487797 32.1961H16.0973C16.3665 32.1961 16.5851 31.9775 16.5851 31.7083V16.0988C16.5851 15.8297 16.3665 15.611 16.0973 15.611H0.997337C1.22381 6.97308 7.36044 0.977127 16.0973 0.977127L16.0979 0.976571ZM15.6101 31.22H0.976152V16.5861H15.6101V31.22Z" fill="#3C4D69"/>
<path d="M39.5122 15.6095H24.4111C24.6376 6.97154 30.7737 0.975594 39.5122 0.975594C39.7813 0.975594 40 0.756961 40 0.487797C40 0.218633 39.7813 0 39.5122 0C30.0341 0 23.4143 6.61921 23.4143 16.0979V31.7074C23.4143 31.9765 23.6329 32.1952 23.9021 32.1952H39.5116C39.7808 32.1952 39.9994 31.9765 39.9994 31.7074V16.0979C39.9994 15.8287 39.7808 15.6101 39.5116 15.6101L39.5122 15.6095ZM39.0244 31.219H24.3905V16.5851H39.0244V31.219Z" fill="#3C4D69"/>
</g>
</svg>
